# xmcd CD database file
#
# Track frame offsets:
#	150
#	12882
#	30977
#	36287
#	50407
#	56272
#	70025
#	86057
#	93330
#	111712
#	126705
#	148067
#	158317
#	172875
#	184852
#	197537
#	214000
#	236105
#	253207
#
# Disc length: 4231 seconds
#
# Revision: 2
# Processed by: cddbd v1.5.2PL0 Copyright (c) Steve Scherf et al.
# Submitted via: CDex 1.70beta2
#
DISCID=09108513
DTITLE=Ata Demirer - Makara
DYEAR=2006
DGENRE=turkish
TTITLE0=Niyazi Gül'le Kurbağa Hayvanı
TTITLE1=Minik Kurbağa
TTITLE2=Müslüm Baba Belgesel 
TTITLE3=Araknofobia 
TTITLE4=Dündar Abi Anlatıyor 
TTITLE5=Dana Dana 
TTITLE6=Kontör At Sevgilim
TTITLE7=Deli Kaptan (Maviler)
TTITLE8=Çaycı Remzi 
TTITLE9=Kenya Bozlağı 
TTITLE10=Gülbahar
TTITLE11=Pamuk ve 7 Cüceler 
TTITLE12=Cüceler 
TTITLE13=Truva'nın Kara Kutusu
TTITLE14=Truva 
TTITLE15=Entelli Bamya 
TTITLE16=Büklüm Büklüm 
TTITLE17=Kurbağa Remix 
TTITLE18=Mutfak Kayıtları
EXTD=YEAR: 2006
EXTT0=
EXTT1=
EXTT2=
EXTT3=
EXTT4=
EXTT5=
EXTT6=
EXTT7=
EXTT8=
EXTT9=
EXTT10=
EXTT11=
EXTT12=
EXTT13=
EXTT14=
EXTT15=
EXTT16=
EXTT17=
EXTT18=
PLAYORDER=
